C:\Users\Nicos\Documents\OpenSimProjects\SprintingProject\Study1\PredictiveResults\IC_pred_Sprinting_optimum_26-October-2023__22-16-26_p02_maxVel_01___HTD_Plus_4_GRF.mot
version=1
nRows=4
nColumns=127
inDegrees=yes
endheader
time	ground_force_vx	ground_force_vy	ground_force_vz	ground_force_px	ground_force_py	ground_force_pz	ground_torque_x	ground_torque_y	ground_torque_z	1_ground_force_vx	1_ground_force_vy	1_ground_force_vz	1_ground_force_px	1_ground_force_py	1_ground_force_pz	1_ground_torque_x	1_ground_torque_y	1_ground_torque_z	2_ground_force_vx	2_ground_force_vy	2_ground_force_vz	2_ground_force_px	2_ground_force_py	2_ground_force_pz	2_ground_torque_x	2_ground_torque_y	2_ground_torque_z	3_ground_force_vx	3_ground_force_vy	3_ground_force_vz	3_ground_force_px	3_ground_force_py	3_ground_force_pz	3_ground_torque_x	3_ground_torque_y	3_ground_torque_z	4_ground_force_vx	4_ground_force_vy	4_ground_force_vz	4_ground_force_px	4_ground_force_py	4_ground_force_pz	4_ground_torque_x	4_ground_torque_y	4_ground_torque_z	5_ground_force_vx	5_ground_force_vy	5_ground_force_vz	5_ground_force_px	5_ground_force_py	5_ground_force_pz	5_ground_torque_x	5_ground_torque_y	5_ground_torque_z	6_ground_force_vx	6_ground_force_vy	6_ground_force_vz	6_ground_force_px	6_ground_force_py	6_ground_force_pz	6_ground_torque_x	6_ground_torque_y	6_ground_torque_z	7_ground_force_vx	7_ground_force_vy	7_ground_force_vz	7_ground_force_px	7_ground_force_py	7_ground_force_pz	7_ground_torque_x	7_ground_torque_y	7_ground_torque_z	8_ground_force_vx	8_ground_force_vy	8_ground_force_vz	8_ground_force_px	8_ground_force_py	8_ground_force_pz	8_ground_torque_x	8_ground_torque_y	8_ground_torque_z	9_ground_force_vx	9_ground_force_vy	9_ground_force_vz	9_ground_force_px	9_ground_force_py	9_ground_force_pz	9_ground_torque_x	9_ground_torque_y	9_ground_torque_z	10_ground_force_vx	10_ground_force_vy	10_ground_force_vz	10_ground_force_px	10_ground_force_py	10_ground_force_pz	10_ground_torque_x	10_ground_torque_y	10_ground_torque_z	11_ground_force_vx	11_ground_force_vy	11_ground_force_vz	11_ground_force_px	11_ground_force_py	11_ground_force_pz	11_ground_torque_x	11_ground_torque_y	11_ground_torque_z	12_ground_force_vx	12_ground_force_vy	12_ground_force_vz	12_ground_force_px	12_ground_force_py	12_ground_force_pz	12_ground_torque_x	12_ground_torque_y	12_ground_torque_z	13_ground_force_vx	13_ground_force_vy	13_ground_force_vz	13_ground_force_px	13_ground_force_py	13_ground_force_pz	13_ground_torque_x	13_ground_torque_y	13_ground_torque_z
0.106813	194.325226	645.723034	-113.375493	0.486387	-0.015796	0.417188	0.000000	0.000000	0.000000	147.755731	440.056299	-2.367700	0.441069	-0.012987	0.436734	0.000000	0.000000	0.000000	127.054856	416.937441	-28.575348	0.408273	-0.013195	0.424722	0.000000	0.000000	0.000000	154.214773	516.739549	-52.294261	0.412851	-0.015131	0.402801	0.000000	0.000000	0.000000	-15.260709	71.274849	18.893982	0.321853	-0.004457	0.450238	0.000000	0.000000	0.000000	-3.819650	313.137764	96.476246	0.379265	-0.011355	0.418013	0.000000	0.000000	0.000000	-13.318592	52.196416	14.253466	0.263234	-0.003996	0.391178	0.000000	0.000000	0.000000	-0.000000	0.000000	0.000000	0.332546	0.226148	0.120603	0.000000	0.000000	0.000000	-0.000000	0.000000	0.000000	0.339553	0.249791	0.107100	0.000000	0.000000	0.000000	-0.000000	0.000000	0.000000	0.338297	0.263583	0.117858	0.000000	0.000000	0.000000	-0.000000	0.000000	0.000000	0.329026	0.260195	0.137470	0.000000	0.000000	0.000000	-0.000000	0.000000	0.000000	0.348535	0.308456	0.101558	0.000000	0.000000	0.000000	-0.000000	0.000000	0.000000	0.335252	0.277895	0.126308	0.000000	0.000000	0.000000	-0.000000	0.000000	0.000000	0.323075	0.335142	0.160109	0.000000	0.000000	0.000000
0.108861	238.218867	687.813991	-97.450557	0.486180	-0.016457	0.417385	0.000000	0.000000	0.000000	150.605724	422.269533	25.470326	0.441053	-0.012702	0.436734	0.000000	0.000000	0.000000	111.081751	361.028334	-9.694010	0.408481	-0.012163	0.424725	0.000000	0.000000	0.000000	131.963753	459.412089	-52.819113	0.412977	-0.014200	0.402823	0.000000	0.000000	0.000000	-4.823910	21.521870	6.092659	0.322718	-0.001753	0.449944	0.000000	0.000000	0.000000	-37.941815	243.691791	67.462100	0.379658	-0.009772	0.417919	0.000000	0.000000	0.000000	-1.808607	6.220874	1.823929	0.264363	-0.000205	0.390697	0.000000	0.000000	0.000000	-0.000000	0.000000	0.000000	0.371853	0.222704	0.118867	0.000000	0.000000	0.000000	-0.000000	0.000000	0.000000	0.377355	0.246429	0.105250	0.000000	0.000000	0.000000	-0.000000	0.000000	0.000000	0.374496	0.260376	0.116173	0.000000	0.000000	0.000000	-0.000000	0.000000	0.000000	0.365184	0.256861	0.135676	0.000000	0.000000	0.000000	-0.000000	0.000000	0.000000	0.382331	0.305374	0.099917	0.000000	0.000000	0.000000	-0.000000	0.000000	0.000000	0.370520	0.274640	0.124558	0.000000	0.000000	0.000000	-0.000000	0.000000	0.000000	0.354617	0.331697	0.158100	0.000000	0.000000	0.000000
0.110346	266.850805	716.374696	-92.996984	0.485908	-0.016936	0.417551	0.000000	0.000000	0.000000	150.705861	405.458688	33.405068	0.440973	-0.012435	0.436710	0.000000	0.000000	0.000000	96.454438	317.352026	12.801560	0.408687	-0.011287	0.424719	0.000000	0.000000	0.000000	114.991521	413.752414	-51.960183	0.413126	-0.013397	0.402834	0.000000	0.000000	0.000000	-1.207850	5.121618	1.503908	0.323503	0.000398	0.449666	0.000000	0.000000	0.000000	-37.066483	193.311610	50.831433	0.380038	-0.008472	0.417823	0.000000	0.000000	0.000000	-0.324087	1.017142	0.312807	0.265444	0.002790	0.390240	0.000000	0.000000	0.000000	-0.000000	0.000000	-0.000000	0.400502	0.220153	0.117749	0.000000	0.000000	0.000000	-0.000000	0.000000	0.000000	0.404884	0.243921	0.104027	0.000000	0.000000	0.000000	-0.000000	0.000000	0.000000	0.400823	0.257959	0.115044	0.000000	0.000000	0.000000	-0.000000	0.000000	0.000000	0.391496	0.254350	0.134470	0.000000	0.000000	0.000000	-0.000000	0.000000	0.000000	0.406862	0.303027	0.098792	0.000000	0.000000	0.000000	-0.000000	0.000000	0.000000	0.396162	0.272180	0.123374	0.000000	0.000000	0.000000	-0.000000	0.000000	0.000000	0.377518	0.329062	0.156696	0.000000	0.000000	0.000000
0.110994	283.216318	729.364049	-87.300537	0.485748	-0.017144	0.417628	0.000000	0.000000	0.000000	151.435203	397.509461	37.798934	0.440914	-0.012302	0.436690	0.000000	0.000000	0.000000	88.738345	297.561022	20.105259	0.408794	-0.010868	0.424716	0.000000	0.000000	0.000000	103.910942	392.810570	-57.981539	0.413208	-0.013010	0.402838	0.000000	0.000000	0.000000	-0.744308	3.066149	0.908950	0.323892	0.001389	0.449528	0.000000	0.000000	0.000000	-34.995020	171.626568	44.227087	0.380233	-0.007862	0.417775	0.000000	0.000000	0.000000	-0.106625	0.321409	0.100393	0.265993	0.004163	0.390013	0.000000	0.000000	0.000000	-0.000000	0.000000	-0.000000	0.413057	0.219025	0.117304	0.000000	0.000000	0.000000	-0.000000	0.000000	-0.000000	0.416941	0.242808	0.103528	0.000000	0.000000	0.000000	-0.000000	0.000000	0.000000	0.412346	0.256880	0.114580	0.000000	0.000000	0.000000	-0.000000	0.000000	0.000000	0.403016	0.253229	0.133974	0.000000	0.000000	0.000000	-0.000000	0.000000	0.000000	0.417586	0.301972	0.098321	0.000000	0.000000	0.000000	-0.000000	0.000000	0.000000	0.407383	0.271079	0.122884	0.000000	0.000000	0.000000	-0.000000	0.000000	0.000000	0.387534	0.327874	0.156100	0.000000	0.000000	0.000000
